<svg width="1120" height="1120" viewBox="0 0 1120 1120" fill="none" xmlns="http://www.w3.org/2000/svg">
<rect width="1120" height="1120" fill="#1E1E1E"/>
<g clip-path="url(#clip0_0_1)">
<rect width="1120" height="1120" rx="140" fill="#A5B4CB"/>
<path d="M490 1140L530 1020L398.271 967.308C360.838 952.335 343.084 909.471 358.965 872.415C375.616 833.561 421.791 818.058 459.795 836.565C503.443 857.821 540.16 871.02 590 879.999H790C839.84 871.02 876.557 857.821 920.205 836.565C958.209 818.058 1004.38 833.561 1021.04 872.415C1036.92 909.471 1019.16 952.335 981.729 967.308L850 1020L890 1140H490Z" fill="#F0F0F0"/>
<path d="M890 1140L850 1020L981.728 967.308C1019.16 952.335 1036.92 909.471 1021.03 872.415C1004.38 833.561 958.209 818.058 920.205 836.565C876.557 857.821 839.839 871.02 790 879.999" stroke="#262626" stroke-width="35"/>
<path d="M490.001 1140L530.001 1020L398.272 967.308C360.839 952.335 343.085 909.471 358.966 872.415C375.618 833.561 421.792 818.058 459.796 836.565C503.444 857.821 540.161 871.02 590.001 879.999" stroke="#262626" stroke-width="35"/>
<path d="M930.001 819.999C975.003 773.592 1000 721.796 1000 649.999C1000 429.999 830.001 339.999 830.001 339.999L765.001 459.999H615.001L550.001 339.999C550.001 339.999 380.001 429.999 380.001 649.999C380.001 721.796 405 773.592 450.001 819.999C517.967 890.088 690.001 889.999 690.001 889.999C690.001 889.999 862.035 890.088 930.001 819.999Z" fill="#F0F0F0" stroke="#262626" stroke-width="35"/>
<path d="M949.999 719.999L1050 739.999M949.999 659.999L1050 639.999" stroke="#262626" stroke-width="35" stroke-linecap="round"/>
<path d="M430.002 719.999L330.002 739.999M430.002 659.999L330.002 639.999" stroke="#262626" stroke-width="35" stroke-linecap="round"/>
<path d="M510 589.999H550V699.999M790 589.999H830V699.999" stroke="#262626" stroke-width="35"/>
<path d="M610 739.999C610 799.999 690 799.999 690 739.999C690 799.999 770 799.999 770 739.999" stroke="#262626" stroke-width="35"/>
<rect x="17.5" y="17.5" width="1085" height="1085" rx="122.5" stroke="#262626" stroke-width="35"/>
<path d="M489.996 1140L529.996 1020L589.996 915H789.996L849.996 1020L889.996 1140H489.996Z" fill="#F0F0F0"/>
<path d="M890 1140L850 1020L981.728 967.308C1019.16 952.335 1036.92 909.471 1021.03 872.415C1004.38 833.561 958.209 818.058 920.205 836.565C876.557 857.821 839.839 871.02 790 880" stroke="#262626" stroke-width="35"/>
<path d="M489.999 1140L529.999 1020L429.999 980" stroke="#262626" stroke-width="35"/>
</g>
<defs>
<clipPath id="clip0_0_1">
<rect width="1120" height="1120" rx="140" fill="white"/>
</clipPath>
</defs>
</svg>
